<?xml version="1.0" encoding="utf-8"?>
<!-- Generator: Adobe Illustrator 25.4.1, SVG Export Plug-In . SVG Version: 6.00 Build 0)  -->
<svg version="1.1" id="Layer_1" xmlns="http://www.w3.org/2000/svg" xmlns:xlink="http://www.w3.org/1999/xlink" x="0px" y="0px"
	 viewBox="0 0 256 256" style="enable-background:new 0 0 256 256;" xml:space="preserve">
<style type="text/css">
	.st0{fill:#0089D3;}
</style>
<g transform="translate(1.4065934065934016 1.4065934065934016) scale(2.81 2.81)">
	<path class="st0" d="M45,71c-16,0-29-13-29-29c0-1.7,1.4-3.1,3.1-3.1c1.7,0,3.1,1.4,3.1,3.1c0,12.6,10.2,22.8,22.8,22.8
		c12.6,0,22.8-10.2,22.8-22.8c0-1.7,1.4-3.1,3.1-3.1s3.1,1.4,3.1,3.1C74,57.9,61,71,45,71z"/>
	<path class="st0" d="M45,60.7L45,60.7c-10.3,0-18.7-8.4-18.7-18.7V18.7C26.3,8.4,34.7,0,45,0l0,0c10.3,0,18.7,8.4,18.7,18.7V42
		C63.7,52.3,55.3,60.7,45,60.7z"/>
	<path class="st0" d="M45,89.2c-1.7,0-3.1-1.4-3.1-3.1V68.7c0-1.7,1.4-3.1,3.1-3.1c1.7,0,3.1,1.4,3.1,3.1v17.5
		C48.1,87.8,46.7,89.2,45,89.2z"/>
	<path class="st0" d="M55.5,90H34.5c-1.7,0-3.1-1.4-3.1-3.1s1.4-3.1,3.1-3.1h20.9c1.7,0,3.1,1.4,3.1,3.1S57.2,90,55.5,90z"/>
</g>
</svg>
